<svg xmlns="http://www.w3.org/2000/svg" width="224.88" viewBox="0 0 224.88 225" height="225" version="1.0"><defs><clipPath id="a"><path d="M 0 0.0585938 L 224.761719 0.0585938 L 224.761719 224.9375 L 0 224.9375 Z M 0 0.0585938"/></clipPath></defs><g clip-path="url(#a)"><path fill="#FFF" d="M 0 0.0585938 L 224.878906 0.0585938 L 224.878906 232.4375 L 0 232.4375 Z M 0 0.0585938"/><path fill="#FFF" d="M 0 0.0585938 L 224.878906 0.0585938 L 224.878906 224.941406 L 0 224.941406 Z M 0 0.0585938"/><path d="M 0 0.0585938 L 224.878906 0.0585938 L 224.878906 224.941406 L 0 224.941406 Z M 0 0.0585938"/></g><path fill="#FFF" d="M 197.054688 22.546875 L 22.488281 22.546875 L 22.488281 202.453125 L 202.390625 202.453125 L 202.390625 22.546875 L 197.054688 22.546875 M 197.054688 197.113281 L 27.886719 197.113281 L 27.886719 27.945312 L 197.054688 27.945312 L 197.054688 197.113281"/><g fill="#FFF"><g><g><path d="M 31.710938 -43.605469 C 36.945312 -43.605469 42.335938 -41.464844 44.953125 -35.753906 L 58.03125 -35.753906 C 54.304688 -46.933594 43.605469 -54.703125 31.710938 -54.703125 C 16.488281 -54.703125 3.964844 -42.175781 3.964844 -26.953125 C 3.964844 -11.734375 16.488281 0.792969 31.710938 0.792969 C 47.09375 0.792969 59.378906 -11.652344 59.378906 -26.953125 L 59.378906 -28.777344 L 32.820312 -28.777344 L 32.820312 -19.820312 L 46.535156 -19.820312 C 43.605469 -11.652344 36.945312 -9.988281 31.710938 -9.988281 C 23.148438 -9.988281 16.015625 -17.679688 16.015625 -26.796875 C 16.015625 -35.914062 23.148438 -43.605469 31.710938 -43.605469 Z M 31.710938 -43.605469" transform="translate(40.928 97.49)"/></g></g></g><g fill="#FFF"><g><g><path d="M 16.648438 -19.265625 L 16.726562 -19.265625 L 29.570312 0 L 44.632812 0 L 29.175781 -19.820312 C 35.992188 -21.484375 41.464844 -27.511719 41.464844 -36.628906 C 41.464844 -46.855469 33.695312 -53.910156 24.972656 -53.910156 L 4.757812 -53.910156 L 4.757812 0 L 16.648438 0 Z M 22.992188 -44.554688 C 26.480469 -44.554688 30.125 -41.542969 30.125 -36.628906 C 30.125 -31.472656 26.480469 -28.621094 22.992188 -28.621094 L 16.648438 -28.621094 L 16.648438 -44.554688 Z M 22.992188 -44.554688" transform="translate(103.082 97.49)"/></g></g></g><g fill="#FFF"><g><g><path d="M 16.648438 0 L 16.648438 -53.910156 L 4.757812 -53.910156 L 4.757812 0 Z M 16.648438 0" transform="translate(146.763 97.49)"/></g></g></g><g fill="#FFF"><g><g><path d="M 47.09375 0 L 47.09375 -53.910156 L 35.199219 -53.910156 L 35.199219 -20.296875 L 16.648438 -53.910156 L 4.757812 -53.910156 L 4.757812 0 L 16.648438 0 L 16.648438 -33.613281 L 35.199219 0 Z M 47.09375 0" transform="translate(42.362 176.648)"/></g></g></g><g fill="#FFF"><g><g><path d="M 16.488281 -10.941406 L 16.488281 -42.890625 L 20.058594 -42.890625 C 29.253906 -42.890625 35.4375 -35.914062 35.4375 -26.953125 C 35.4375 -17.996094 29.175781 -10.941406 20.058594 -10.941406 Z M 4.757812 -53.910156 L 4.757812 0 L 20.769531 0 C 36.070312 0 47.566406 -11.734375 47.566406 -26.953125 C 47.566406 -42.175781 35.992188 -53.910156 20.769531 -53.910156 Z M 4.757812 -53.910156" transform="translate(94.21 176.648)"/></g></g></g><g fill="#FFF"><g><g><path d="M 4.121094 -6.105469 C 4.121094 -2.300781 7.214844 0.792969 11.097656 0.792969 C 14.90625 0.792969 18.074219 -2.300781 18.074219 -6.105469 C 18.074219 -9.988281 14.90625 -13.082031 11.097656 -13.082031 C 7.214844 -13.082031 4.121094 -9.988281 4.121094 -6.105469 Z M 4.121094 -6.105469" transform="translate(144.55 176.648)"/></g></g></g></svg>