<svg xmlns="http://www.w3.org/2000/svg" width="300" viewBox="0 0 300 300" height="300" version="1.0"><path fill="#FFF" d="M-30 -30H330V330H-30z"/><path fill="#FFF" d="M-30 -30H330V330H-30z"/><path d="M-30 -30H330V330H-30z"/><path fill="#FFF" d="M 262.878906 30 L 30 30 L 30 270 L 270 270 L 270 30 L 262.878906 30 M 262.878906 262.878906 L 37.199219 262.878906 L 37.199219 37.199219 L 262.878906 37.199219 L 262.878906 262.878906"/><g fill="#FFF"><g><g><path d="M 42.304688 -58.167969 C 49.285156 -58.167969 56.476562 -55.3125 59.96875 -47.699219 L 77.417969 -47.699219 C 72.445312 -62.609375 58.167969 -72.976562 42.304688 -72.976562 C 22 -72.976562 5.289062 -56.265625 5.289062 -35.960938 C 5.289062 -15.652344 22 1.058594 42.304688 1.058594 C 62.824219 1.058594 79.214844 -15.546875 79.214844 -35.960938 L 79.214844 -38.390625 L 43.785156 -38.390625 L 43.785156 -26.441406 L 62.082031 -26.441406 C 58.167969 -15.546875 49.285156 -13.324219 42.304688 -13.324219 C 30.882812 -13.324219 21.363281 -23.585938 21.363281 -35.746094 C 21.363281 -47.910156 30.882812 -58.167969 42.304688 -58.167969 Z M 42.304688 -58.167969" transform="translate(54.6 129.976)"/></g></g></g><g fill="#FFF"><g><g><path d="M 22.210938 -25.699219 L 22.316406 -25.699219 L 39.449219 0 L 59.542969 0 L 38.921875 -26.441406 C 48.015625 -28.660156 55.3125 -36.699219 55.3125 -48.863281 C 55.3125 -62.503906 44.949219 -71.917969 33.316406 -71.917969 L 6.347656 -71.917969 L 6.347656 0 L 22.210938 0 Z M 30.671875 -59.4375 C 35.324219 -59.4375 40.191406 -55.417969 40.191406 -48.863281 C 40.191406 -41.988281 35.324219 -38.179688 30.671875 -38.179688 L 22.210938 -38.179688 L 22.210938 -59.4375 Z M 30.671875 -59.4375" transform="translate(137.515 129.976)"/></g></g></g><g fill="#FFF"><g><g><path d="M 22.210938 0 L 22.210938 -71.917969 L 6.347656 -71.917969 L 6.347656 0 Z M 22.210938 0" transform="translate(195.789 129.976)"/></g></g></g><g fill="#FFF"><g><g><path d="M 62.824219 0 L 62.824219 -71.917969 L 46.957031 -71.917969 L 46.957031 -27.074219 L 22.210938 -71.917969 L 6.347656 -71.917969 L 6.347656 0 L 22.210938 0 L 22.210938 -44.84375 L 46.957031 0 Z M 62.824219 0" transform="translate(56.513 235.576)"/></g></g></g><g fill="#FFF"><g><g><path d="M 22 -14.59375 L 22 -57.21875 L 26.757812 -57.21875 C 39.027344 -57.21875 47.277344 -47.910156 47.277344 -35.960938 C 47.277344 -24.007812 38.921875 -14.59375 26.757812 -14.59375 Z M 6.347656 -71.917969 L 6.347656 0 L 27.710938 0 C 48.121094 0 63.457031 -15.652344 63.457031 -35.960938 C 63.457031 -56.265625 48.015625 -71.917969 27.710938 -71.917969 Z M 6.347656 -71.917969" transform="translate(125.68 235.576)"/></g></g></g><g fill="#FFF"><g><g><path d="M 5.5 -8.144531 C 5.5 -3.066406 9.625 1.058594 14.808594 1.058594 C 19.882812 1.058594 24.113281 -3.066406 24.113281 -8.144531 C 24.113281 -13.324219 19.882812 -17.449219 14.808594 -17.449219 C 9.625 -17.449219 5.5 -13.324219 5.5 -8.144531 Z M 5.5 -8.144531" transform="translate(192.836 235.576)"/></g></g></g></svg>